<svg width="32" height="40" viewBox="0 0 32 40" fill="none" xmlns="http://www.w3.org/2000/svg">
<path d="M1.34022 39.9992H7.24922C7.46522 39.9992 7.67919 39.9462 7.87119 39.8472C10.5342 38.4562 13.3552 35.9092 16.3142 33.0242C16.8772 33.8542 17.5592 34.5132 18.3522 34.9852C18.5602 35.1082 18.7972 35.1732 19.0402 35.1732H24.1502V32.4871H19.4442C18.9822 32.1421 18.5932 31.6672 18.2742 31.0912C18.3802 30.9862 18.4872 30.8802 18.5932 30.7752C21.4932 27.8962 23.6202 24.6882 24.7432 21.4992C25.7632 18.6032 25.8862 15.9462 25.0912 14.0162C24.4032 12.3452 23.0682 11.3872 21.4272 11.3872C20.4332 11.3872 18.9482 11.8052 17.5202 13.7992C16.6242 15.0492 15.8602 16.7692 15.3092 18.7722C14.4922 21.7452 14.2212 25.0542 14.5672 27.8492C14.6832 28.7882 14.8652 29.6562 15.1102 30.4452C12.1652 33.3422 9.3822 35.9402 6.9102 37.3142H3.76121C8.02221 30.2102 8.78721 25.9032 9.41221 22.3822C10.0802 18.6172 10.5222 16.1312 15.3752 11.7892C15.7532 11.4512 15.9082 10.9292 15.7762 10.4392C14.8212 6.88817 15.2262 4.24517 16.8872 3.18917C18.3152 2.28017 20.5472 2.62917 22.1972 4.02017L26.3572 7.51419H20.9082V10.2002H30.0442C30.6082 10.2002 31.1122 9.84717 31.3062 9.31717C31.4982 8.78717 31.3402 8.19216 30.9082 7.82916L23.9282 1.96518C21.3662 -0.194825 17.8782 -0.622817 15.4482 0.923183C14.1402 1.75518 13.2352 3.09018 12.8302 4.78418C12.4542 6.35618 12.5072 8.22118 12.9862 10.3362C8.00021 14.9852 7.45421 18.0602 6.77021 21.9142C6.12821 25.5252 5.33022 30.0212 0.215219 37.9282C-0.0517811 38.3412 -0.0717831 38.8672 0.163217 39.2992C0.396217 39.7292 0.849219 39.9992 1.34022 39.9992ZM17.8982 19.4842C18.8762 15.9312 20.4142 14.0722 21.4282 14.0722C21.6422 14.0722 22.2092 14.0722 22.6082 15.0382C23.1362 16.3192 22.9872 18.4002 22.2112 20.6072C21.5662 22.4362 20.2032 25.1932 17.3372 28.2182C16.8822 25.5812 17.1242 22.3012 17.8982 19.4842Z" fill="#FF9900"/>
</svg>
